<?xml version="1.0" encoding="utf-8"?>
<!-- Generator: Adobe Illustrator 17.0.0, SVG Export Plug-In . SVG Version: 6.00 Build 0)  -->
<!DOCTYPE svg PUBLIC "-//W3C//DTD SVG 1.1//EN" "http://www.w3.org/Graphics/SVG/1.1/DTD/svg11.dtd">
<svg version="1.1" id="Layer_1" xmlns="http://www.w3.org/2000/svg" xmlns:xlink="http://www.w3.org/1999/xlink" x="0px" y="0px"
	 width="117.656px" height="34.841px" viewBox="0 0 117.656 34.841" enable-background="new 0 0 117.656 34.841"
	 xml:space="preserve">
<path fill="#FFFFFF" d="M2.964,8.578c1,0,1.44-0.599,1.786-0.599c0.196,0,0.327,0.15,0.327,0.384c0,0.421-0.944,0.926-2.113,0.926
	c-1.926,0-2.917-1.655-2.917-3.385s0.991-3.385,2.964-3.385c1.178,0,1.926,0.636,1.926,0.973c0,0.215-0.131,0.392-0.336,0.392
	c-0.374,0-0.561-0.654-1.59-0.654c-1.478,0-2.085,1.403-2.085,2.674C0.926,7.176,1.552,8.578,2.964,8.578"/>
<path fill="#FFFFFF" d="M6.708,7.063c0,0.851,0.541,1.514,1.467,1.514c1.094,0,1.375-0.673,1.683-0.673c0.149,0,0.3,0.131,0.3,0.365
	c0,0.402-1.02,1.019-1.991,1.019c-1.59,0-2.282-1.225-2.282-2.543c0-1.347,0.842-2.544,2.235-2.544c1.355,0,2.141,1.226,2.141,2.423
	c0,0.289-0.102,0.439-0.458,0.439H6.708z M9.437,6.446c0-0.711-0.411-1.534-1.317-1.534C7.1,4.875,6.735,5.688,6.708,6.446H9.437z"
	/>
<path fill="#FFFFFF" d="M12.341,8.849c0,0.271-0.159,0.44-0.412,0.44c-0.252,0-0.411-0.169-0.411-0.44V2.453
	c0-0.271,0.159-0.438,0.411-0.438c0.253,0,0.412,0.167,0.412,0.438V8.849z"/>
<path fill="#FFFFFF" d="M14.412,7.063c0,0.851,0.542,1.514,1.468,1.514c1.095,0,1.375-0.673,1.684-0.673
	c0.148,0,0.299,0.131,0.299,0.365c0,0.402-1.019,1.019-1.991,1.019c-1.59,0-2.282-1.225-2.282-2.543
	c0-1.347,0.842-2.544,2.235-2.544c1.355,0,2.141,1.226,2.141,2.423c0,0.289-0.103,0.439-0.458,0.439H14.412z M17.143,6.446
	c0-0.711-0.411-1.534-1.318-1.534c-1.019-0.037-1.384,0.776-1.412,1.534H17.143z"/>
<path fill="#FFFFFF" d="M19.241,2.453c0-0.271,0.159-0.438,0.412-0.438c0.252,0,0.411,0.167,0.411,0.438v2.423h0.019
	c0.215-0.309,0.674-0.674,1.328-0.674c1.346,0,2.122,1.226,2.122,2.543c0,1.319-0.776,2.544-2.122,2.544
	c-0.654,0-1.094-0.234-1.328-0.683h-0.019v0.243c0,0.271-0.159,0.44-0.411,0.44c-0.253,0-0.412-0.169-0.412-0.44V2.453z
	 M21.346,8.578c1.01,0,1.365-0.991,1.365-1.833c0-0.841-0.355-1.832-1.365-1.832c-1.01,0-1.365,0.991-1.365,1.832
	C19.98,7.586,20.336,8.578,21.346,8.578"/>
<path fill="#FFFFFF" d="M24.834,4.642c0-0.271,0.159-0.44,0.411-0.44c0.252,0,0.411,0.169,0.411,0.44v0.421h0.019
	c0.187-0.384,0.645-0.861,1.121-0.861c0.29,0,0.458,0.187,0.458,0.421c0,0.234-0.168,0.384-0.514,0.449
	c-0.486,0.084-1.085,0.449-1.085,1.412v2.365c0,0.271-0.159,0.44-0.411,0.44c-0.252,0-0.411-0.169-0.411-0.44V4.642z"/>
<path fill="#FFFFFF" d="M32.161,8.887c0,0.29-0.225,0.402-0.384,0.402c-0.169,0-0.384-0.112-0.384-0.402V8.54h-0.019
	c-0.355,0.505-0.822,0.748-1.355,0.748c-1.402,0-2.188-1.225-2.188-2.544c0-1.317,0.786-2.543,2.188-2.543
	c0.57,0,0.973,0.243,1.355,0.664h0.019V4.604c0-0.29,0.215-0.403,0.384-0.403c0.159,0,0.384,0.113,0.384,0.403V8.887z M30.02,8.578
	c1.01,0,1.365-0.991,1.365-1.833c0-0.841-0.356-1.832-1.365-1.832c-1.01,0-1.365,0.991-1.365,1.832
	C28.654,7.586,29.01,8.578,30.02,8.578"/>
<path fill="#FFFFFF" d="M33.938,3.183c0-0.271,0.159-0.439,0.411-0.439c0.253,0,0.412,0.168,0.412,0.439v1.075h0.337
	c0.271,0,0.411,0.131,0.411,0.356c0,0.224-0.141,0.355-0.411,0.355h-0.337v3.88c0,0.271-0.159,0.44-0.412,0.44
	c-0.252,0-0.411-0.169-0.411-0.44v-3.88h-0.337c-0.27,0-0.41-0.131-0.41-0.355c0-0.225,0.14-0.356,0.41-0.356h0.337V3.183z"/>
<path fill="#FFFFFF" d="M36.942,2.519c0.279,0,0.504,0.225,0.504,0.505c0,0.281-0.225,0.505-0.504,0.505
	c-0.281,0-0.506-0.224-0.506-0.505C36.437,2.744,36.661,2.519,36.942,2.519 M37.353,8.849c0,0.271-0.158,0.44-0.41,0.44
	c-0.253,0-0.412-0.169-0.412-0.44V4.642c0-0.271,0.159-0.44,0.412-0.44c0.252,0,0.41,0.169,0.41,0.44V8.849z"/>
<path fill="#FFFFFF" d="M38.886,4.642c0-0.271,0.159-0.44,0.412-0.44c0.252,0,0.41,0.169,0.41,0.44v0.196l0.02,0.019
	c0.364-0.468,0.879-0.655,1.374-0.655c0.767,0,1.73,0.487,1.73,1.889v2.758c0,0.271-0.158,0.44-0.41,0.44
	c-0.253,0-0.412-0.169-0.412-0.44V6.138c0-0.87-0.608-1.225-1.15-1.225s-1.15,0.355-1.15,1.225v2.711c0,0.271-0.158,0.44-0.41,0.44
	c-0.253,0-0.412-0.169-0.412-0.44V4.642z"/>
<path fill="#FFFFFF" d="M48.39,8.877c0,1.478-0.897,2.375-2.243,2.375c-0.852,0-1.908-0.486-1.908-0.906
	c0-0.169,0.084-0.384,0.346-0.384c0.374,0,0.739,0.58,1.627,0.58c1.048,0,1.355-0.823,1.355-1.534v-0.43h-0.017
	c-0.253,0.43-0.702,0.711-1.263,0.711c-1.402,0-2.188-1.225-2.188-2.544c0-1.317,0.785-2.543,2.188-2.543
	c0.533,0,1.047,0.328,1.263,0.627h0.017V4.604c0-0.29,0.216-0.403,0.44-0.403c0.159,0,0.383,0.113,0.383,0.403V8.877z M46.286,8.578
	c1.01,0,1.365-0.991,1.365-1.833c0-0.841-0.355-1.832-1.365-1.832c-1.01,0-1.365,0.991-1.365,1.832
	C44.921,7.586,45.276,8.578,46.286,8.578"/>
<path fill="#FFFFFF" d="M53.12,3.183c0-0.271,0.159-0.439,0.412-0.439c0.252,0,0.41,0.168,0.41,0.439v1.075h0.338
	c0.271,0,0.41,0.131,0.41,0.356c0,0.224-0.14,0.355-0.41,0.355h-0.338v3.88c0,0.271-0.158,0.44-0.41,0.44
	c-0.253,0-0.412-0.169-0.412-0.44v-3.88h-0.337c-0.271,0-0.411-0.131-0.411-0.355c0-0.225,0.14-0.356,0.411-0.356h0.337V3.183z"/>
<path fill="#FFFFFF" d="M58.835,6.137c0-0.87-0.608-1.225-1.15-1.225c-0.543,0-1.15,0.355-1.15,1.225v2.711
	c0,0.271-0.159,0.44-0.412,0.44c-0.252,0-0.411-0.169-0.411-0.44V2.453c0-0.271,0.159-0.439,0.411-0.439
	c0.253,0,0.412,0.168,0.412,0.439v2.384l0.019,0.019c0.364-0.468,0.879-0.655,1.374-0.655c0.768,0,1.73,0.487,1.73,1.889v2.758
	c0,0.271-0.159,0.44-0.412,0.44c-0.252,0-0.41-0.169-0.41-0.44V6.137z"/>
<path fill="#FFFFFF" d="M61.706,7.063c0,0.851,0.54,1.514,1.466,1.514c1.095,0,1.375-0.673,1.684-0.673c0.149,0,0.3,0.131,0.3,0.365
	c0,0.402-1.021,1.019-1.992,1.019c-1.59,0-2.281-1.225-2.281-2.543c0-1.347,0.841-2.544,2.234-2.544
	c1.355,0,2.141,1.226,2.141,2.423c0,0.289-0.102,0.439-0.458,0.439H61.706z M64.435,6.446c0-0.711-0.411-1.534-1.318-1.534
	c-1.02-0.037-1.384,0.776-1.41,1.534H64.435z"/>
<path fill="#FFFFFF" d="M2.328,14.989c0.842,0,1.337,0.29,1.337,0.627c0,0.168-0.14,0.346-0.337,0.346c-0.317,0-0.438-0.262-1-0.262
	c-1.02,0-1.422,0.991-1.422,1.832c0,0.843,0.402,1.834,1.422,1.834c0.579,0,0.729-0.281,0.991-0.281
	c0.187,0,0.317,0.122,0.317,0.347c0,0.308-0.458,0.646-1.309,0.646c-1.516,0-2.244-1.226-2.244-2.545
	C0.084,16.215,0.812,14.989,2.328,14.989"/>
<path fill="#FFFFFF" d="M4.662,15.429c0-0.271,0.159-0.44,0.412-0.44c0.252,0,0.411,0.169,0.411,0.44v0.421h0.019
	c0.188-0.384,0.645-0.861,1.122-0.861c0.29,0,0.458,0.187,0.458,0.421c0,0.234-0.168,0.384-0.515,0.449
	c-0.485,0.085-1.084,0.449-1.084,1.412v2.365c0,0.271-0.159,0.441-0.411,0.441c-0.253,0-0.412-0.169-0.412-0.441V15.429z"/>
<path fill="#FFFFFF" d="M8.31,17.851c0,0.852,0.543,1.516,1.469,1.516c1.093,0,1.374-0.675,1.683-0.675
	c0.149,0,0.299,0.132,0.299,0.366c0,0.402-1.019,1.02-1.991,1.02c-1.59,0-2.281-1.226-2.281-2.544c0-1.347,0.842-2.544,2.234-2.544
	c1.356,0,2.142,1.226,2.142,2.423c0,0.289-0.103,0.438-0.459,0.438H8.31z M11.04,17.234c0-0.711-0.411-1.535-1.318-1.535
	c-1.019-0.037-1.384,0.776-1.412,1.535H11.04z"/>
<path fill="#FFFFFF" d="M17.087,19.675c0,0.289-0.226,0.402-0.385,0.402c-0.168,0-0.383-0.113-0.383-0.402v-0.346H16.3
	c-0.354,0.504-0.822,0.748-1.354,0.748c-1.402,0-2.188-1.226-2.188-2.544c0-1.318,0.786-2.544,2.188-2.544
	c0.57,0,0.973,0.244,1.354,0.665h0.02v-0.262c0-0.29,0.215-0.403,0.383-0.403c0.159,0,0.385,0.113,0.385,0.403V19.675z
	 M14.945,19.366c1.01,0,1.365-0.991,1.365-1.833c0-0.842-0.355-1.833-1.365-1.833c-1.01,0-1.365,0.991-1.365,1.833
	C13.58,18.375,13.936,19.366,14.945,19.366"/>
<path fill="#FFFFFF" d="M18.742,13.97c0-0.271,0.159-0.439,0.412-0.439c0.252,0,0.411,0.168,0.411,0.439v1.076h0.337
	c0.271,0,0.411,0.13,0.411,0.355c0,0.224-0.141,0.355-0.411,0.355h-0.337v3.88c0,0.271-0.159,0.441-0.411,0.441
	c-0.253,0-0.412-0.169-0.412-0.441v-3.88h-0.336c-0.271,0-0.411-0.131-0.411-0.355c0-0.225,0.14-0.355,0.411-0.355h0.336V13.97z"/>
<path fill="#FFFFFF" d="M21.624,13.307c0.28,0,0.505,0.225,0.505,0.505c0,0.281-0.225,0.505-0.505,0.505
	c-0.281,0-0.505-0.224-0.505-0.505C21.119,13.532,21.343,13.307,21.624,13.307 M22.036,19.637c0,0.271-0.16,0.441-0.412,0.441
	c-0.252,0-0.412-0.169-0.412-0.441v-4.208c0-0.271,0.16-0.439,0.412-0.439c0.252,0,0.412,0.168,0.412,0.439V19.637z"/>
<path fill="#FFFFFF" d="M23.014,15.71c-0.056-0.15-0.084-0.244-0.084-0.337c0-0.243,0.178-0.384,0.374-0.384
	c0.271,0,0.365,0.131,0.431,0.318l1.131,3.442h0.018l1.132-3.442c0.065-0.187,0.159-0.318,0.43-0.318
	c0.197,0,0.374,0.141,0.374,0.384c0,0.093-0.028,0.187-0.084,0.337l-1.431,4.012c-0.084,0.242-0.168,0.356-0.431,0.356
	c-0.262,0-0.346-0.113-0.43-0.356L23.014,15.71z"/>
<path fill="#FFFFFF" d="M28.153,17.851c0,0.852,0.542,1.516,1.468,1.516c1.095,0,1.375-0.675,1.684-0.675
	c0.149,0,0.299,0.132,0.299,0.366c0,0.402-1.019,1.02-1.991,1.02c-1.59,0-2.282-1.226-2.282-2.544c0-1.347,0.842-2.544,2.235-2.544
	c1.355,0,2.141,1.226,2.141,2.423c0,0.289-0.103,0.438-0.458,0.438H28.153z M30.884,17.234c0-0.711-0.412-1.535-1.318-1.535
	c-1.02-0.037-1.384,0.776-1.412,1.535H30.884z"/>
<path fill="#FFFFFF" d="M36.802,14.989c0.683,0,1.654,0.365,1.654,0.879c0,0.178-0.121,0.337-0.374,0.337
	c-0.356,0-0.495-0.505-1.28-0.505c-0.468,0-0.869,0.206-0.869,0.626c0,0.87,2.655,0.776,2.655,2.217c0,1.038-0.89,1.534-1.814,1.534
	c-1.047,0-1.87-0.524-1.87-0.945c0-0.225,0.159-0.374,0.336-0.374c0.365,0,0.665,0.608,1.562,0.608c0.598,0,0.963-0.336,0.963-0.674
	c0-0.973-2.655-0.916-2.655-2.3C35.109,15.477,35.969,14.989,36.802,14.989"/>
<path fill="#FFFFFF" d="M39.736,15.429c0-0.271,0.16-0.44,0.413-0.44c0.252,0,0.411,0.169,0.411,0.44v0.243h0.019
	c0.234-0.449,0.673-0.683,1.328-0.683c1.346,0,2.121,1.226,2.121,2.544c0,1.318-0.775,2.544-2.121,2.544
	c-0.655,0-1.113-0.365-1.328-0.674h-0.019v2.197c0,0.271-0.159,0.439-0.411,0.439c-0.253,0-0.413-0.168-0.413-0.439V15.429z
	 M41.841,19.366c1.011,0,1.366-0.991,1.366-1.833c0-0.842-0.356-1.833-1.366-1.833c-1.01,0-1.364,0.991-1.364,1.833
	C40.477,18.375,40.831,19.366,41.841,19.366"/>
<path fill="#FFFFFF" d="M45.595,13.307c0.28,0,0.505,0.225,0.505,0.505c0,0.281-0.225,0.505-0.505,0.505
	c-0.28,0-0.505-0.224-0.505-0.505C45.09,13.532,45.314,13.307,45.595,13.307 M46.006,19.637c0,0.271-0.158,0.441-0.411,0.441
	c-0.252,0-0.411-0.169-0.411-0.441v-4.208c0-0.271,0.159-0.439,0.411-0.439c0.253,0,0.411,0.168,0.411,0.439V19.637z"/>
<path fill="#FFFFFF" d="M47.418,15.429c0-0.271,0.159-0.44,0.411-0.44c0.253,0,0.411,0.169,0.411,0.44v0.421h0.019
	c0.188-0.384,0.645-0.861,1.123-0.861c0.289,0,0.457,0.187,0.457,0.421c0,0.234-0.168,0.384-0.514,0.449
	c-0.486,0.085-1.085,0.449-1.085,1.412v2.365c0,0.271-0.158,0.441-0.411,0.441c-0.252,0-0.411-0.169-0.411-0.441V15.429z"/>
<path fill="#FFFFFF" d="M51.118,13.307c0.28,0,0.505,0.225,0.505,0.505c0,0.281-0.225,0.505-0.505,0.505
	c-0.281,0-0.505-0.224-0.505-0.505C50.613,13.532,50.837,13.307,51.118,13.307 M51.53,19.637c0,0.271-0.159,0.441-0.412,0.441
	c-0.252,0-0.411-0.169-0.411-0.441v-4.208c0-0.271,0.159-0.439,0.411-0.439c0.253,0,0.412,0.168,0.412,0.439V19.637z"/>
<path fill="#FFFFFF" d="M53.177,13.97c0-0.271,0.159-0.439,0.411-0.439c0.252,0,0.411,0.168,0.411,0.439v1.076h0.337
	c0.271,0,0.411,0.13,0.411,0.355c0,0.224-0.14,0.355-0.411,0.355h-0.337v3.88c0,0.271-0.159,0.441-0.411,0.441
	c-0.252,0-0.411-0.169-0.411-0.441v-3.88h-0.336c-0.273,0-0.412-0.131-0.412-0.355c0-0.225,0.14-0.355,0.412-0.355h0.336V13.97z"/>
<path fill="#FFFFFF" d="M59.301,14.989c1.402,0,2.188,1.226,2.188,2.544c0,1.318-0.786,2.544-2.188,2.544
	c-1.402,0-2.189-1.226-2.189-2.544C57.112,16.215,57.898,14.989,59.301,14.989 M59.301,19.366c1.01,0,1.365-0.991,1.365-1.833
	c0-0.842-0.355-1.833-1.365-1.833s-1.365,0.991-1.365,1.833C57.936,18.375,58.291,19.366,59.301,19.366"/>
<path fill="#FFFFFF" d="M63.65,19.637c0,0.271-0.159,0.441-0.411,0.441c-0.253,0-0.412-0.169-0.412-0.441v-3.88h-0.336
	c-0.271,0-0.411-0.132-0.411-0.356c0-0.224,0.14-0.355,0.411-0.355h0.336v-1.169c0-0.72,0.496-1.075,1.094-1.075h0.252
	c0.216,0,0.469,0.131,0.469,0.355c0,0.225-0.141,0.355-0.448,0.355h-0.206c-0.253,0-0.337,0.123-0.337,0.328v1.206h0.515
	c0.27,0,0.411,0.131,0.411,0.355c0,0.224-0.141,0.356-0.411,0.356H63.65V19.637z"/>
<path fill="#FFFFFF" d="M0.824,28.638c0,0.852,0.54,1.516,1.466,1.516c1.095,0,1.375-0.674,1.684-0.674c0.149,0,0.3,0.131,0.3,0.365
	c0,0.402-1.02,1.02-1.991,1.02C0.691,30.864,0,29.639,0,28.32c0-1.347,0.842-2.544,2.234-2.544c1.355,0,2.142,1.226,2.142,2.423
	c0,0.289-0.102,0.438-0.459,0.438H0.824z M3.553,28.021c0-0.711-0.411-1.534-1.318-1.534c-1.019-0.037-1.384,0.776-1.41,1.534H3.553
	z"/>
<path fill="#FFFFFF" d="M8.279,27.638c0-0.711-0.393-1.15-1.065-1.15c-0.664,0-1.057,0.44-1.057,1.15v2.786
	c0,0.271-0.159,0.441-0.412,0.441c-0.252,0-0.411-0.17-0.411-0.441v-4.207c0-0.271,0.159-0.44,0.411-0.44
	c0.253,0,0.412,0.17,0.412,0.44v0.15l0.017,0.018c0.197-0.252,0.506-0.608,1.254-0.608c0.486,0,0.991,0.207,1.365,0.842
	c0.364-0.523,0.804-0.842,1.523-0.842c0.768,0,1.73,0.487,1.73,1.889v2.759c0,0.271-0.159,0.441-0.412,0.441
	c-0.253,0-0.411-0.17-0.411-0.441v-2.786c0-0.711-0.392-1.15-1.066-1.15c-0.663,0-1.056,0.44-1.056,1.15v2.786
	c0,0.271-0.159,0.441-0.411,0.441c-0.253,0-0.412-0.17-0.412-0.441V27.638z"/>
<path fill="#FFFFFF" d="M13.806,28.638c0,0.852,0.54,1.516,1.467,1.516c1.094,0,1.374-0.674,1.683-0.674c0.15,0,0.3,0.131,0.3,0.365
	c0,0.402-1.02,1.02-1.992,1.02c-1.59,0-2.281-1.226-2.281-2.544c0-1.347,0.842-2.544,2.234-2.544c1.356,0,2.142,1.226,2.142,2.423
	c0,0.289-0.103,0.438-0.458,0.438H13.806z M16.534,28.021c0-0.711-0.41-1.534-1.318-1.534c-1.019-0.037-1.384,0.776-1.41,1.534
	H16.534z"/>
<path fill="#FFFFFF" d="M18.316,26.217c0-0.271,0.159-0.44,0.412-0.44c0.252,0,0.41,0.169,0.41,0.44v0.421h0.02
	c0.187-0.384,0.646-0.861,1.122-0.861c0.289,0,0.457,0.187,0.457,0.422c0,0.233-0.168,0.383-0.514,0.448
	c-0.485,0.085-1.085,0.449-1.085,1.412v2.365c0,0.271-0.158,0.441-0.41,0.441c-0.253,0-0.412-0.169-0.412-0.441V26.217z"/>
<path fill="#FFFFFF" d="M25.308,30.452c0,1.477-0.898,2.375-2.244,2.375c-0.851,0-1.907-0.485-1.907-0.906
	c0-0.17,0.083-0.385,0.346-0.385c0.373,0,0.738,0.58,1.627,0.58c1.046,0,1.356-0.822,1.356-1.533v-0.43h-0.019
	c-0.253,0.43-0.701,0.711-1.263,0.711c-1.402,0-2.188-1.226-2.188-2.544c0-1.317,0.786-2.544,2.188-2.544
	c0.533,0,1.048,0.328,1.263,0.627h0.019V26.18c0-0.29,0.216-0.403,0.439-0.403c0.159,0,0.384,0.113,0.384,0.403V30.452z
	 M23.203,30.153c1.01,0,1.365-0.991,1.365-1.833s-0.355-1.833-1.365-1.833c-1.01,0-1.364,0.991-1.364,1.833
	S22.193,30.153,23.203,30.153"/>
<path fill="#FFFFFF" d="M26.98,24.095c0.279,0,0.505,0.224,0.505,0.504c0,0.281-0.226,0.506-0.505,0.506
	c-0.28,0-0.505-0.225-0.505-0.506C26.476,24.318,26.7,24.095,26.98,24.095 M27.392,30.424c0,0.271-0.159,0.441-0.411,0.441
	s-0.411-0.169-0.411-0.441v-4.207c0-0.271,0.159-0.44,0.411-0.44s0.411,0.169,0.411,0.44V30.424z"/>
<path fill="#FFFFFF" d="M28.625,26.217c0-0.271,0.159-0.44,0.412-0.44c0.253,0,0.411,0.169,0.411,0.44v0.196l0.018,0.018
	c0.365-0.468,0.88-0.655,1.375-0.655c0.767,0,1.73,0.487,1.73,1.889v2.759c0,0.271-0.158,0.441-0.411,0.441
	c-0.253,0-0.411-0.169-0.411-0.441v-2.712c0-0.869-0.608-1.224-1.15-1.224c-0.543,0-1.15,0.355-1.15,1.224v2.712
	c0,0.271-0.158,0.441-0.411,0.441c-0.253,0-0.412-0.169-0.412-0.441V26.217z"/>
<path fill="#FFFFFF" d="M37.83,30.452c0,1.477-0.898,2.375-2.244,2.375c-0.851,0-1.907-0.485-1.907-0.906
	c0-0.17,0.084-0.385,0.346-0.385c0.374,0,0.739,0.58,1.627,0.58c1.047,0,1.356-0.822,1.356-1.533v-0.43h-0.018
	c-0.253,0.43-0.702,0.711-1.263,0.711c-1.403,0-2.188-1.226-2.188-2.544c0-1.317,0.785-2.544,2.188-2.544
	c0.533,0,1.047,0.328,1.263,0.627h0.018V26.18c0-0.29,0.216-0.403,0.439-0.403c0.159,0,0.384,0.113,0.384,0.403V30.452z
	 M35.727,30.153c1.01,0,1.364-0.991,1.364-1.833s-0.354-1.833-1.364-1.833s-1.365,0.991-1.365,1.833S34.717,30.153,35.727,30.153"/>
<path fill="#FFFFFF" d="M45.628,30.462c0,0.289-0.225,0.402-0.384,0.402c-0.168,0-0.383-0.113-0.383-0.402v-0.346h-0.02
	c-0.355,0.504-0.822,0.748-1.355,0.748c-1.402,0-2.189-1.226-2.189-2.544c0-1.317,0.786-2.544,2.189-2.544
	c0.57,0,0.972,0.244,1.355,0.664h0.02V26.18c0-0.29,0.215-0.403,0.383-0.403c0.159,0,0.384,0.113,0.384,0.403V30.462z
	 M43.486,30.153c1.01,0,1.364-0.991,1.364-1.833s-0.354-1.833-1.364-1.833c-1.01,0-1.365,0.991-1.365,1.833
	S42.477,30.153,43.486,30.153"/>
<path fill="#FFFFFF" d="M46.87,26.217c0-0.271,0.159-0.44,0.412-0.44c0.252,0,0.411,0.169,0.411,0.44v0.421h0.019
	c0.188-0.384,0.645-0.861,1.122-0.861c0.29,0,0.458,0.187,0.458,0.422c0,0.233-0.168,0.383-0.515,0.448
	c-0.485,0.085-1.084,0.449-1.084,1.412v2.365c0,0.271-0.159,0.441-0.411,0.441c-0.253,0-0.412-0.169-0.412-0.441V26.217z"/>
<path fill="#FFFFFF" d="M50.487,24.758c0-0.271,0.159-0.439,0.411-0.439c0.252,0,0.411,0.168,0.411,0.439v1.075h0.337
	c0.271,0,0.412,0.131,0.412,0.355c0,0.225-0.141,0.355-0.412,0.355H51.31v3.88c0,0.271-0.159,0.441-0.411,0.441
	c-0.252,0-0.411-0.17-0.411-0.441v-3.88h-0.336c-0.271,0-0.412-0.131-0.412-0.355c0-0.225,0.141-0.355,0.412-0.355h0.336V24.758z"/>
<path fill="#FFFFFF" d="M53.191,24.095c0.279,0,0.505,0.224,0.505,0.504c0,0.281-0.226,0.506-0.505,0.506
	c-0.28,0-0.505-0.225-0.505-0.506C52.687,24.318,52.911,24.095,53.191,24.095 M53.603,30.424c0,0.271-0.159,0.441-0.411,0.441
	c-0.252,0-0.411-0.169-0.411-0.441v-4.207c0-0.271,0.159-0.44,0.411-0.44c0.252,0,0.411,0.169,0.411,0.44V30.424z"/>
<path fill="#FFFFFF" d="M56.375,25.776c0.683,0,1.656,0.365,1.656,0.879c0,0.178-0.122,0.338-0.374,0.338
	c-0.355,0-0.496-0.506-1.282-0.506c-0.468,0-0.869,0.206-0.869,0.627c0,0.869,2.655,0.775,2.655,2.216
	c0,1.038-0.889,1.534-1.813,1.534c-1.047,0-1.87-0.524-1.87-0.945c0-0.225,0.159-0.374,0.337-0.374c0.364,0,0.663,0.608,1.561,0.608
	c0.6,0,0.963-0.336,0.963-0.674c0-0.973-2.655-0.916-2.655-2.3C54.683,26.264,55.544,25.776,56.375,25.776"/>
<path fill="#FFFFFF" d="M59.397,24.758c0-0.271,0.159-0.439,0.411-0.439c0.253,0,0.412,0.168,0.412,0.439v1.075h0.337
	c0.271,0,0.411,0.131,0.411,0.355c0,0.225-0.141,0.355-0.411,0.355h-0.337v3.88c0,0.271-0.159,0.441-0.412,0.441
	c-0.252,0-0.411-0.17-0.411-0.441v-3.88h-0.337c-0.27,0-0.41-0.131-0.41-0.355c0-0.225,0.14-0.355,0.41-0.355h0.337V24.758z"/>
<path fill="#FFFFFF" d="M63.228,25.776c0.683,0,1.654,0.365,1.654,0.879c0,0.178-0.121,0.338-0.374,0.338
	c-0.354,0-0.495-0.506-1.28-0.506c-0.468,0-0.87,0.206-0.87,0.627c0,0.869,2.655,0.775,2.655,2.216c0,1.038-0.889,1.534-1.813,1.534
	c-1.048,0-1.87-0.524-1.87-0.945c0-0.225,0.158-0.374,0.336-0.374c0.365,0,0.664,0.608,1.562,0.608c0.598,0,0.963-0.336,0.963-0.674
	c0-0.973-2.656-0.916-2.656-2.3C61.535,26.264,62.396,25.776,63.228,25.776"/>
<path fill="#E41F26" d="M100.236,0C90.63,0,82.815,7.814,82.815,17.42c0,9.606,7.814,17.421,17.421,17.421
	c9.604,0,17.42-7.815,17.42-17.421C117.656,7.814,109.841,0,100.236,0"/>
<path fill="#FFFFFF" d="M90.41,26.61l-1.316-1.854c-0.062-0.089-0.098-0.203-0.098-0.314c0-0.277,0.209-0.507,0.501-0.507
	c0.183,0,0.342,0.076,0.433,0.21l1.003,1.455l1.002-1.455c0.09-0.134,0.253-0.21,0.433-0.21c0.292,0,0.501,0.229,0.501,0.507
	c0,0.111-0.034,0.226-0.096,0.314l-1.317,1.854v1.859c0,0.256-0.153,0.51-0.523,0.51c-0.368,0-0.522-0.254-0.522-0.51V26.61z"/>
<path fill="#FFFFFF" d="M93.938,24.583c0-0.349,0.172-0.606,0.542-0.606h1.727c0.335,0,0.496,0.236,0.496,0.481
	c0,0.236-0.168,0.479-0.496,0.479h-1.225v1.017h1.14c0.343,0,0.51,0.24,0.51,0.48c0,0.238-0.173,0.482-0.51,0.482h-1.14v1.059h1.289
	c0.334,0,0.495,0.237,0.495,0.481c0,0.235-0.168,0.479-0.495,0.479h-1.799c-0.306,0-0.534-0.211-0.534-0.522V24.583z"/>
<path fill="#FFFFFF" d="M99.133,24.472c0.118-0.32,0.39-0.578,0.744-0.578c0.372,0,0.629,0.243,0.746,0.578l1.366,3.789
	c0.042,0.113,0.057,0.209,0.057,0.258c0,0.271-0.224,0.46-0.482,0.46c-0.293,0-0.439-0.153-0.508-0.362l-0.209-0.656H98.91
	l-0.207,0.647c-0.07,0.218-0.219,0.371-0.505,0.371c-0.277,0-0.513-0.21-0.513-0.488c0-0.112,0.032-0.195,0.049-0.229L99.133,24.472
	z M99.21,26.999h1.324l-0.649-2.021h-0.014L99.21,26.999z"/>
<path fill="#FFFFFF" d="M103.196,24.521c0-0.334,0.188-0.544,0.535-0.544h1.227c1.072,0,1.733,0.481,1.733,1.573
	c0,0.769-0.577,1.207-1.287,1.317l1.184,1.267c0.097,0.106,0.14,0.211,0.14,0.31c0,0.27-0.217,0.536-0.521,0.536
	c-0.126,0-0.294-0.05-0.406-0.182l-1.547-1.875h-0.012v1.513c0,0.347-0.225,0.544-0.521,0.544c-0.301,0-0.523-0.197-0.523-0.544
	V24.521z M104.241,26.172h0.717c0.383,0,0.649-0.23,0.649-0.622c0-0.396-0.267-0.611-0.649-0.611h-0.717V26.172z"/>
<path fill="#FFFFFF" d="M110.823,24.591c0,0.27-0.181,0.514-0.466,0.514c-0.285,0-0.508-0.207-0.927-0.207
	c-0.299,0-0.57,0.16-0.57,0.453c0,0.715,2.326,0.256,2.326,2.055c0,0.996-0.822,1.613-1.783,1.613c-0.534,0-1.693-0.125-1.693-0.779
	c0-0.271,0.183-0.494,0.467-0.494c0.328,0,0.718,0.271,1.17,0.271c0.461,0,0.711-0.258,0.711-0.599c0-0.821-2.327-0.329-2.327-1.944
	c0-0.974,0.803-1.58,1.728-1.58C109.85,23.894,110.823,24.039,110.823,24.591"/>
<path fill="#FFFFFF" d="M92.599,11.444c0.51-0.106,1.061-0.211,1.592-0.211c2.564,0,4.389,2.036,4.389,4.517
	c0,3.54-1.949,5.874-5.618,5.874c-1.506,0-4.665-0.976-4.665-2.843c0-0.786,0.656-1.441,1.44-1.441c0.849,0,1.867,1.355,3.287,1.355
	c1.484,0,2.247-1.439,2.247-2.775c0-1.274-0.72-2.144-2.035-2.144c-1.229,0-1.42,0.702-2.5,0.702c-0.828,0-1.254-0.638-1.254-0.998
	c0-0.276,0.044-0.488,0.063-0.721l0.532-4.472c0.23-1.655,0.634-2.014,1.652-2.014h5.111c0.976,0,1.546,0.571,1.546,1.336
	c0,1.46-1.101,1.589-1.48,1.589h-3.991L92.599,11.444z"/>
<path fill="#FFFFFF" d="M99.58,13.818c0-3.457,1.872-7.801,6.152-7.801c4.284,0,6.153,4.344,6.153,7.801
	c0,3.457-1.869,7.806-6.153,7.806C101.452,21.624,99.58,17.275,99.58,13.818 M108.58,13.818c0-1.611-0.685-4.917-2.848-4.917
	c-2.161,0-2.844,3.306-2.844,4.917c0,1.506,0.683,4.92,2.844,4.92C107.896,18.738,108.58,15.324,108.58,13.818"/>
</svg>
