<?xml version="1.0" encoding="utf-8"?>
<!-- Generator: Adobe Illustrator 17.0.0, SVG Export Plug-In . SVG Version: 6.00 Build 0)  -->
<!DOCTYPE svg PUBLIC "-//W3C//DTD SVG 1.1//EN" "http://www.w3.org/Graphics/SVG/1.1/DTD/svg11.dtd">
<svg version="1.1" id="Layer_1" xmlns="http://www.w3.org/2000/svg" xmlns:xlink="http://www.w3.org/1999/xlink" x="0px" y="0px"
	 width="168px" height="48px" viewBox="0 0 168 48" enable-background="new 0 0 168 48" xml:space="preserve">
<path fill="#E41F26" d="M71.023,27.936c-0.562,0-1.124-0.215-1.552-0.645L59.007,16.829c-0.628-0.627-0.815-1.572-0.475-2.393
	c0.339-0.82,1.14-1.355,2.027-1.355h4.631c1.797,0,3.258-1.462,3.258-3.258c0-1.797-1.461-3.258-3.258-3.258h-9.888v19.172
	c0,1.213-0.984,2.195-2.196,2.195c-1.212,0-2.195-0.982-2.195-2.195V4.369c0-1.212,0.983-2.195,2.195-2.195H65.19
	c4.218,0,7.649,3.431,7.649,7.649c0,4.001-3.088,7.295-7.006,7.622l6.743,6.743c0.857,0.857,0.857,2.246,0,3.103
	C72.147,27.721,71.585,27.936,71.023,27.936"/>
<path fill="#E41F26" d="M90.924,28.861c-7.614,0-13.809-6.193-13.809-13.809c0-7.614,6.195-13.809,13.809-13.809
	c7.614,0,13.808,6.195,13.808,13.809C104.732,22.668,98.538,28.861,90.924,28.861 M90.924,5.635c-5.193,0-9.418,4.226-9.418,9.418
	c0,5.193,4.225,9.418,9.418,9.418c5.192,0,9.417-4.225,9.417-9.418C100.341,9.861,96.116,5.635,90.924,5.635"/>
<path fill="#E41F26" d="M3.39,41.741c-1.212,0-2.195-0.983-2.195-2.196c0-1.212,0.983-2.195,2.195-2.195
	c5.193,0,9.743-4.225,9.743-9.418V6.565H3.715c-1.213,0-2.196-0.983-2.196-2.196c0-1.212,0.983-2.196,2.196-2.196h11.613
	c1.213,0,2.196,0.984,2.196,2.196v23.562C17.523,35.547,11.003,41.741,3.39,41.741"/>
<path fill="#E41F26" d="M137.162,27.932c-1.212,0-2.195-0.982-2.195-2.195V6.946l-8.502,11.364
	c-0.413,0.555-1.066,0.879-1.758,0.879c-1.114,0-1.586-0.644-2.133-1.391L114.64,6.949v18.788c0,1.213-0.983,2.195-2.196,2.195
	c-1.213,0-2.196-0.982-2.196-2.195V6.341c0-2.298,1.87-4.167,4.168-4.167c1.236,0,2.397,0.542,3.193,1.488l0.367,0.424
	c0.041,0.046,0.08,0.095,0.117,0.145c0,0,4.176,5.711,6.634,9.072l6.802-9.091c0.032-0.043,0.066-0.085,0.101-0.126l0.368-0.424
	c0.795-0.946,1.957-1.488,3.193-1.488c2.297,0,4.167,1.869,4.167,4.167v19.396C139.358,26.949,138.375,27.932,137.162,27.932"/>
<path fill="#E41F26" d="M43.243,23.541h-11.16c-1.797,0-3.258-1.461-3.258-3.258v-3.496H39.63c1.212,0,2.195-0.984,2.195-2.196
	c0-1.212-0.983-2.195-2.195-2.195H28.825V6.565h14.418c1.211,0,2.195-0.982,2.195-2.196c0-1.212-0.984-2.195-2.195-2.195H26.629
	c-1.212,0-2.196,0.983-2.196,2.195v15.914c0,4.217,3.433,7.649,7.65,7.649h11.16c1.211,0,2.195-0.982,2.195-2.195
	S44.454,23.541,43.243,23.541"/>
<path fill="#E41F26" d="M164.725,23.541h-11.16c-1.796,0-3.257-1.461-3.257-3.258v-3.496h10.804c1.213,0,2.196-0.984,2.196-2.196
	c0-1.212-0.983-2.195-2.196-2.195h-10.804V6.565h14.417c1.213,0,2.196-0.982,2.196-2.196c0-1.212-0.983-2.195-2.196-2.195h-16.613
	c-1.212,0-2.195,0.983-2.195,2.195v15.914c0,4.217,3.431,7.649,7.648,7.649h11.16c1.213,0,2.196-0.982,2.196-2.195
	S165.937,23.541,164.725,23.541"/>
<path fill="#FFFFFF" d="M142.786,46.33c-2.53,0-4.589-2.059-4.589-4.589c0-2.531,2.059-4.589,4.589-4.589
	c2.53,0,4.59,2.058,4.59,4.589C147.376,44.272,145.316,46.33,142.786,46.33 M142.786,38.718c-1.667,0-3.023,1.356-3.023,3.023
	c0,1.668,1.356,3.022,3.023,3.022c1.667,0,3.023-1.354,3.023-3.022C145.809,40.074,144.453,38.718,142.786,38.718"/>
<path fill="#FFFFFF" d="M46.222,46.33c-2.53,0-4.589-2.059-4.589-4.589c0-2.531,2.059-4.589,4.589-4.589
	c2.532,0,4.589,2.058,4.589,4.589C50.81,44.272,48.754,46.33,46.222,46.33 M46.222,38.718c-1.666,0-3.023,1.356-3.023,3.023
	c0,1.668,1.357,3.022,3.023,3.022c1.668,0,3.024-1.354,3.024-3.022C49.246,40.074,47.89,38.718,46.222,38.718"/>
<path fill="#FFFFFF" d="M60.175,44.764c-1.216,0-2.205-0.986-2.205-2.204v-4.626c0-0.432-0.35-0.781-0.782-0.781
	c-0.434,0-0.784,0.35-0.784,0.781v4.626c0,2.081,1.691,3.771,3.771,3.771h0.742c2.079,0,3.77-1.69,3.77-3.771v-4.626
	c0-0.432-0.35-0.781-0.783-0.781c-0.432,0-0.783,0.35-0.783,0.781v4.626c0,1.218-0.988,2.204-2.204,2.204H60.175z"/>
<path fill="#FFFFFF" d="M35.798,37.152h-5.842c-0.433,0-0.783,0.35-0.783,0.781v7.615c0,0.43,0.35,0.781,0.783,0.781
	c0.432,0,0.783-0.352,0.783-0.781v-3.02h3.853c0.433,0,0.783-0.351,0.783-0.783c0-0.433-0.35-0.784-0.783-0.784h-3.853v-2.244h5.059
	c0.433,0,0.784-0.351,0.784-0.784C36.582,37.502,36.231,37.152,35.798,37.152"/>
<path fill="#FFFFFF" d="M92.408,46.41h-3.142c-0.432,0-0.783-0.35-0.783-0.783v-7.783c0-0.433,0.351-0.783,0.783-0.783h3.142
	c2.079,0,3.771,1.69,3.771,3.771v1.809C96.179,44.719,94.487,46.41,92.408,46.41 M90.049,44.844h2.359
	c1.215,0,2.204-0.99,2.204-2.203v-1.809c0-1.216-0.989-2.204-2.204-2.204h-2.359V44.844z"/>
<path fill="#FFFFFF" d="M79.371,46.422c-0.437,0-0.842-0.203-1.115-0.556l-0.122-0.151c-0.012-0.017-0.024-0.033-0.036-0.051
	l-4.56-6.722v6.696c0,0.432-0.35,0.783-0.783,0.783c-0.432,0-0.784-0.352-0.784-0.783v-7.081c0-0.819,0.643-1.487,1.431-1.487
	c0.436,0,0.843,0.203,1.116,0.557l0.121,0.152c0.012,0.016,0.024,0.031,0.036,0.048l4.56,6.724v-6.696
	c0-0.433,0.35-0.784,0.783-0.784s0.782,0.352,0.782,0.784v7.083C80.8,45.756,80.16,46.422,79.371,46.422"/>
<path fill="#FFFFFF" d="M160.271,46.422c-0.437,0-0.842-0.203-1.116-0.556l-0.12-0.151c-0.014-0.017-0.026-0.033-0.037-0.051
	l-4.56-6.722v6.696c0,0.432-0.351,0.783-0.784,0.783c-0.432,0-0.782-0.352-0.782-0.783v-7.081c0-0.819,0.641-1.487,1.43-1.487
	c0.436,0,0.843,0.203,1.115,0.557l0.122,0.152c0.012,0.016,0.024,0.031,0.036,0.048l4.56,6.724v-6.696
	c0-0.433,0.35-0.784,0.782-0.784c0.434,0,0.784,0.352,0.784,0.784v7.083C161.701,45.756,161.06,46.422,160.271,46.422"/>
<path fill="#FFFFFF" d="M110.549,45.307l-3.509-7.785c-0.127-0.28-0.407-0.461-0.715-0.461s-0.586,0.181-0.713,0.461l-3.509,7.785
	c-0.179,0.393-0.002,0.858,0.391,1.035c0.394,0.178,0.859,0.002,1.035-0.393l0.858-1.9h3.876l0.858,1.9
	c0.131,0.289,0.416,0.461,0.714,0.461c0.108,0,0.218-0.021,0.321-0.068C110.551,46.164,110.726,45.699,110.549,45.307
	 M105.094,42.482l1.231-2.734l1.234,2.734H105.094z"/>
<path fill="#FFFFFF" d="M122.285,37.152h-5.926c-0.432,0-0.783,0.35-0.783,0.781c0,0.434,0.351,0.784,0.783,0.784h2.18v6.831
	c0,0.43,0.35,0.781,0.782,0.781c0.434,0,0.784-0.352,0.784-0.781v-6.831h2.18c0.433,0,0.783-0.351,0.783-0.784
	C123.068,37.502,122.718,37.152,122.285,37.152"/>
<path fill="#FFFFFF" d="M131.154,46.33c-0.433,0-0.784-0.352-0.784-0.781v-7.614c0-0.433,0.351-0.782,0.784-0.782
	s0.783,0.35,0.783,0.782v7.614C131.937,45.979,131.587,46.33,131.154,46.33"/>
</svg>
