<?xml version="1.0" encoding="utf-8"?>
<!-- Generator: Adobe Illustrator 17.1.0, SVG Export Plug-In . SVG Version: 6.00 Build 0)  -->
<!DOCTYPE svg PUBLIC "-//W3C//DTD SVG 1.1 Tiny//EN" "http://www.w3.org/Graphics/SVG/1.1/DTD/svg11-tiny.dtd">
<svg version="1.1" baseProfile="tiny" id="Layer_1" xmlns="http://www.w3.org/2000/svg" xmlns:xlink="http://www.w3.org/1999/xlink"
	 x="0px" y="0px" viewBox="0 0 168 48" xml:space="preserve">
<path fill="#BD2025" d="M71,27.9c-0.6,0-1.1-0.2-1.6-0.6L59,16.8c-0.6-0.6-0.8-1.6-0.5-2.4c0.3-0.8,1.1-1.4,2-1.4h4.6
	c1.8,0,3.3-1.5,3.3-3.3c0-1.8-1.5-3.3-3.3-3.3h-9.9v19.2c0,1.2-1,2.2-2.2,2.2c-1.2,0-2.2-1-2.2-2.2V4.4c0-1.2,1-2.2,2.2-2.2h12.1
	c4.2,0,7.6,3.4,7.6,7.6c0,4-3.1,7.3-7,7.6l6.7,6.7c0.9,0.9,0.9,2.2,0,3.1C72.1,27.7,71.6,27.9,71,27.9"/>
<path fill="#BD2025" d="M90.9,28.9c-7.6,0-13.8-6.2-13.8-13.8c0-7.6,6.2-13.8,13.8-13.8s13.8,6.2,13.8,13.8
	C104.7,22.7,98.5,28.9,90.9,28.9 M90.9,5.6c-5.2,0-9.4,4.2-9.4,9.4c0,5.2,4.2,9.4,9.4,9.4c5.2,0,9.4-4.2,9.4-9.4
	C100.3,9.9,96.1,5.6,90.9,5.6"/>
<path fill="#BD2025" d="M3.4,41.7c-1.2,0-2.2-1-2.2-2.2c0-1.2,1-2.2,2.2-2.2c5.2,0,9.7-4.2,9.7-9.4V6.6H3.7c-1.2,0-2.2-1-2.2-2.2
	c0-1.2,1-2.2,2.2-2.2h11.6c1.2,0,2.2,1,2.2,2.2v23.6C17.5,35.5,11,41.7,3.4,41.7"/>
<path fill="#BD2025" d="M137.2,27.9c-1.2,0-2.2-1-2.2-2.2V6.9l-8.5,11.4c-0.4,0.6-1.1,0.9-1.8,0.9c-1.1,0-1.6-0.6-2.1-1.4l-7.9-10.8
	v18.8c0,1.2-1,2.2-2.2,2.2s-2.2-1-2.2-2.2V6.3c0-2.3,1.9-4.2,4.2-4.2c1.2,0,2.4,0.5,3.2,1.5l0.4,0.4c0,0,0.1,0.1,0.1,0.1
	c0,0,4.2,5.7,6.6,9.1l6.8-9.1c0,0,0.1-0.1,0.1-0.1l0.4-0.4c0.8-0.9,2-1.5,3.2-1.5c2.3,0,4.2,1.9,4.2,4.2v19.4
	C139.4,26.9,138.4,27.9,137.2,27.9"/>
<path fill="#BD2025" d="M43.2,23.5H32.1c-1.8,0-3.3-1.5-3.3-3.3v-3.5h10.8c1.2,0,2.2-1,2.2-2.2s-1-2.2-2.2-2.2H28.8V6.6h14.4
	c1.2,0,2.2-1,2.2-2.2c0-1.2-1-2.2-2.2-2.2H26.6c-1.2,0-2.2,1-2.2,2.2v15.9c0,4.2,3.4,7.6,7.7,7.6h11.2c1.2,0,2.2-1,2.2-2.2
	S44.5,23.5,43.2,23.5"/>
<path fill="#BD2025" d="M164.7,23.5h-11.2c-1.8,0-3.3-1.5-3.3-3.3v-3.5h10.8c1.2,0,2.2-1,2.2-2.2s-1-2.2-2.2-2.2h-10.8V6.6h14.4
	c1.2,0,2.2-1,2.2-2.2c0-1.2-1-2.2-2.2-2.2h-16.6c-1.2,0-2.2,1-2.2,2.2v15.9c0,4.2,3.4,7.6,7.6,7.6h11.2c1.2,0,2.2-1,2.2-2.2
	S165.9,23.5,164.7,23.5"/>
<path fill="#FFFFFF" d="M142.8,46.3c-2.5,0-4.6-2.1-4.6-4.6c0-2.5,2.1-4.6,4.6-4.6s4.6,2.1,4.6,4.6
	C147.4,44.3,145.3,46.3,142.8,46.3 M142.8,38.7c-1.7,0-3,1.4-3,3c0,1.7,1.4,3,3,3c1.7,0,3-1.4,3-3C145.8,40.1,144.5,38.7,142.8,38.7
	"/>
<path fill="#FFFFFF" d="M46.2,46.3c-2.5,0-4.6-2.1-4.6-4.6c0-2.5,2.1-4.6,4.6-4.6c2.5,0,4.6,2.1,4.6,4.6
	C50.8,44.3,48.8,46.3,46.2,46.3 M46.2,38.7c-1.7,0-3,1.4-3,3c0,1.7,1.4,3,3,3c1.7,0,3-1.4,3-3C49.2,40.1,47.9,38.7,46.2,38.7"/>
<path fill="#FFFFFF" d="M60.2,44.8c-1.2,0-2.2-1-2.2-2.2v-4.6c0-0.4-0.3-0.8-0.8-0.8c-0.4,0-0.8,0.3-0.8,0.8v4.6
	c0,2.1,1.7,3.8,3.8,3.8h0.7c2.1,0,3.8-1.7,3.8-3.8v-4.6c0-0.4-0.3-0.8-0.8-0.8c-0.4,0-0.8,0.3-0.8,0.8v4.6c0,1.2-1,2.2-2.2,2.2H60.2
	z"/>
<path fill="#FFFFFF" d="M35.8,37.2H30c-0.4,0-0.8,0.3-0.8,0.8v7.6c0,0.4,0.4,0.8,0.8,0.8c0.4,0,0.8-0.4,0.8-0.8v-3h3.9
	c0.4,0,0.8-0.4,0.8-0.8c0-0.4-0.3-0.8-0.8-0.8h-3.9v-2.2h5.1c0.4,0,0.8-0.4,0.8-0.8C36.6,37.5,36.2,37.2,35.8,37.2"/>
<path fill="#FFFFFF" d="M92.4,46.4h-3.1c-0.4,0-0.8-0.3-0.8-0.8v-7.8c0-0.4,0.4-0.8,0.8-0.8h3.1c2.1,0,3.8,1.7,3.8,3.8v1.8
	C96.2,44.7,94.5,46.4,92.4,46.4 M90,44.8h2.4c1.2,0,2.2-1,2.2-2.2v-1.8c0-1.2-1-2.2-2.2-2.2H90V44.8z"/>
<path fill="#FFFFFF" d="M79.4,46.4c-0.4,0-0.8-0.2-1.1-0.6l-0.1-0.2c0,0,0,0,0-0.1l-4.6-6.7v6.7c0,0.4-0.3,0.8-0.8,0.8
	c-0.4,0-0.8-0.4-0.8-0.8v-7.1c0-0.8,0.6-1.5,1.4-1.5c0.4,0,0.8,0.2,1.1,0.6l0.1,0.2c0,0,0,0,0,0l4.6,6.7v-6.7c0-0.4,0.3-0.8,0.8-0.8
	s0.8,0.4,0.8,0.8v7.1C80.8,45.8,80.2,46.4,79.4,46.4"/>
<path fill="#FFFFFF" d="M160.3,46.4c-0.4,0-0.8-0.2-1.1-0.6l-0.1-0.2c0,0,0,0,0-0.1l-4.6-6.7v6.7c0,0.4-0.4,0.8-0.8,0.8
	c-0.4,0-0.8-0.4-0.8-0.8v-7.1c0-0.8,0.6-1.5,1.4-1.5c0.4,0,0.8,0.2,1.1,0.6l0.1,0.2c0,0,0,0,0,0l4.6,6.7v-6.7c0-0.4,0.4-0.8,0.8-0.8
	c0.4,0,0.8,0.4,0.8,0.8v7.1C161.7,45.8,161.1,46.4,160.3,46.4"/>
<path fill="#FFFFFF" d="M110.5,45.3l-3.5-7.8c-0.1-0.3-0.4-0.5-0.7-0.5s-0.6,0.2-0.7,0.5l-3.5,7.8c-0.2,0.4,0,0.9,0.4,1
	c0.4,0.2,0.9,0,1-0.4l0.9-1.9h3.9l0.9,1.9c0.1,0.3,0.4,0.5,0.7,0.5c0.1,0,0.2,0,0.3-0.1C110.6,46.2,110.7,45.7,110.5,45.3
	 M105.1,42.5l1.2-2.7l1.2,2.7H105.1z"/>
<path fill="#FFFFFF" d="M122.3,37.2h-5.9c-0.4,0-0.8,0.3-0.8,0.8c0,0.4,0.4,0.8,0.8,0.8h2.2v6.8c0,0.4,0.3,0.8,0.8,0.8
	c0.4,0,0.8-0.4,0.8-0.8v-6.8h2.2c0.4,0,0.8-0.4,0.8-0.8C123.1,37.5,122.7,37.2,122.3,37.2"/>
<path fill="#FFFFFF" d="M131.2,46.3c-0.4,0-0.8-0.4-0.8-0.8v-7.6c0-0.4,0.4-0.8,0.8-0.8s0.8,0.3,0.8,0.8v7.6
	C131.9,46,131.6,46.3,131.2,46.3"/>
</svg>
